<svg height="558" width="720" xmlns="http://www.w3.org/2000/svg">
<rect height="558" fill="#555" width="720"></rect>
<text fill="#7f7" font-family="Courier New" font-size="12" xml:space="preserve">
<tspan x="10" y="26">21 megabytes installed</tspan>
<tspan x="10" y="42"></tspan>
<tspan x="10" y="58">node_modules</tspan>
<tspan x="10" y="74">├─┬ express@2.5.9 </tspan>
<tspan x="10" y="90">│ ├─┬ connect@1.9.2 </tspan>
<tspan x="10" y="106">│ │ └── formidable@1.0.17 </tspan>
<tspan x="10" y="122">│ ├── mime@1.2.4 </tspan>
<tspan x="10" y="138">│ ├── mkdirp@0.3.0 </tspan>
<tspan x="10" y="154">│ └── qs@0.4.2 </tspan>
<tspan x="10" y="170">├── oauth@0.9.7 </tspan>
<tspan x="10" y="186">├─┬ optimist@0.3.4 </tspan>
<tspan x="10" y="202">│ └── wordwrap@0.0.3 </tspan>
<tspan x="10" y="218">├─┬ socket.io@0.9.6 </tspan>
<tspan x="10" y="234">│ ├── policyfile@0.0.4 </tspan>
<tspan x="10" y="250">│ ├── redis@0.6.7 </tspan>
<tspan x="10" y="266">│ └─┬ socket.io-client@0.9.6 </tspan>
<tspan x="10" y="282">│   ├─┬ active-x-obfuscator@0.0.1 </tspan>
<tspan x="10" y="298">│   │ └── zeparser@0.0.5 </tspan>
<tspan x="10" y="314">│   ├── uglify-js@1.2.5 </tspan>
<tspan x="10" y="330">│   ├─┬ ws@0.4.32 </tspan>
<tspan x="10" y="346">│   │ ├── commander@2.1.0 </tspan>
<tspan x="10" y="362">│   │ ├── nan@1.0.0 </tspan>
<tspan x="10" y="378">│   │ ├── options@0.0.6 </tspan>
<tspan x="10" y="394">│   │ └── tinycolor@0.0.1 </tspan>
<tspan x="10" y="410">│   └── xmlhttprequest@1.2.2 </tspan>
<tspan x="10" y="426">└─┬ zerorpc@0.9.7 </tspan>
<tspan x="10" y="442">  ├─┬ msgpack@1.0.2 </tspan>
<tspan x="10" y="458">  │ └── nan@2.6.2 </tspan>
<tspan x="10" y="474">  ├── underscore@1.3.3 </tspan>
<tspan x="10" y="490">  ├── uuid@3.0.1 </tspan>
<tspan x="10" y="506">  └─┬ zmq@2.15.3 </tspan>
<tspan x="10" y="522">    ├── bindings@1.2.1 </tspan>
<tspan x="10" y="538">    └── nan@2.3.5</tspan>
</text>
</svg>
